<?xml version="1.0" encoding="UTF-8"?>
<svg id="Layer_1" data-name="Layer 1" xmlns="http://www.w3.org/2000/svg" viewBox="0 0 255.1 113.4">
  <defs>
    <style>
      .cls-1 {
        fill: #727070;
      }

      .cls-1, .cls-2, .cls-3 {
        isolation: isolate;
      }

      .cls-1, .cls-3 {
        font-family: MyriadPro-Regular, 'Myriad Pro';
        font-size: 32px;
      }

      .cls-4 {
        letter-spacing: .75em;
      }

      .cls-5 {
        letter-spacing: .75em;
      }

      .cls-6 {
        fill: #f39314;
      }

      .cls-6, .cls-7 {
        fill-rule: evenodd;
      }

      .cls-7 {
        fill: #616b70;
      }

      .cls-3 {
        fill: none;
        stroke: #727070;
        stroke-miterlimit: 10;
      }
    </style>
  </defs>
  <g>
    <path class="cls-6" d="M13.95,49.3c-1.6,18.4,6.8,28.3,24.5,28.3s24-9.1,24-25.3V14.6h-20.2v40.5c0,4.9-2.1,7.5-5.1,7.5-5.3,0-5.3-6.9-5.3-13.3H13.95ZM163.05,76c16.1,0,26.3-5.1,26.5-18.5,0-6.3-2.7-12.1-9.5-14.1,3.9-2.5,7.4-7.1,7.3-13.4-.3-13-11-15.4-24.9-15.4h-33.9c12.7,14.9,13.5,47.7-3.3,61.4h37.8ZM160.35,28.9c4.3,0,8.3.4,8.2,4.9,0,3.9-2.9,5.3-7,5.3h-5.2c-.4-3.2-.8-6.4-1.8-10.2h5.8ZM159.65,50.3c6.4,0,11.1,0,11.1,5.7,0,4.3-3.8,5.6-8.7,5.6h-8.1c1-3.1,2.2-7.5,2.4-11.3h3.3ZM241.35,76v-14.3h-27.7V14.6h-20.2v61.4h47.9Z"/>
    <path class="cls-6" d="M130.55,38.1c-1-15.2-11.6-24.8-31.4-25.1-20.9-.3-32.5,12.4-32.5,32.2s11.2,31.9,31.6,32.5c19.6.6,32.8-11.5,32.7-28.8h-18.1c0,5.9-4.2,13.1-13,13.2-10.3.1-14.6-8.6-14.6-17.2s7.7-17.2,14.8-17.2,11.3,3.9,12.3,10.3h18.3l-.1.1Z"/>
    <path class="cls-7" d="M220.05,7.9c.5,0,1,.1,1.5.4s.9.7,1.2,1.2.4,1,.4,1.6-.1,1.1-.4,1.5c-.3.5-.7.9-1.2,1.2s-1,.4-1.6.4-1.1-.1-1.6-.4c-.5-.3-.9-.7-1.2-1.2s-.4-1-.4-1.5.1-1.1.4-1.6c.3-.5.7-.9,1.2-1.2s1-.4,1.5-.4h.2ZM220.05,8.4c-.4,0-.9.1-1.3.3-.4.2-.7.5-1,1-.2.4-.4.9-.4,1.3s.1.9.3,1.3c.2.4.6.7,1,1,.4.2.8.3,1.3.3s.9-.1,1.3-.3c.4-.2.7-.6,1-1,.2-.4.3-.8.3-1.3s-.1-.9-.3-1.3c-.2-.4-.6-.7-1-1-.4-.2-.8-.3-1.3-.3h.1ZM218.75,12.7v-3.4h2.1c.2,0,.3.2.4.3.1.2.2.3.2.5s0,.5-.3.6c-.2.2-.4.3-.7.3.1,0,.2.1.3.2.1.1.3.4.5.7l.4.7h-.7l-.3-.5c-.2-.4-.4-.7-.6-.8,0,0-.2-.1-.4-.1h-.3v1.4h-.5l-.1.1ZM219.25,10.8h.7c.3,0,.5,0,.6-.1.1,0,.2-.2.2-.4v-.3s-.1-.1-.2-.2h-1.1v1h-.2Z"/>
  </g>
  <g class="cls-2">
    <text class="cls-1" transform="translate(13.26 106.1)"><tspan class="cls-4" x="0" y="0">EU</tspan><tspan class="cls-5" x="84.45" y="0">R</tspan><tspan class="cls-4" x="125.76" y="0">OPE</tspan></text>
    <text class="cls-3" transform="translate(13.26 106.1)"><tspan class="cls-4" x="0" y="0">EU</tspan><tspan class="cls-5" x="84.45" y="0">R</tspan><tspan class="cls-4" x="125.76" y="0">OPE</tspan></text>
  </g>
</svg>