<?xml version="1.0" encoding="UTF-8"?>
<!DOCTYPE svg PUBLIC "-//W3C//DTD SVG 1.1//EN" "http://www.w3.org/Graphics/SVG/1.1/DTD/svg11.dtd">
<!-- Creator: CorelDRAW -->
<svg xmlns="http://www.w3.org/2000/svg" xml:space="preserve" width="90mm" height="40mm" version="1.1" style="shape-rendering:geometricPrecision; text-rendering:geometricPrecision; image-rendering:optimizeQuality; fill-rule:evenodd; clip-rule:evenodd"
viewBox="0 0 9000 4000"
 xmlns:xlink="http://www.w3.org/1999/xlink"
 xmlns:xodm="http://www.corel.com/coreldraw/odm/2003">
 <defs>
  <style type="text/css">
   <![CDATA[
    .fil1 {fill:#F39314}
    .fil0 {fill:#616B70}
    .fil2 {fill:#616B70;fill-rule:nonzero}
   ]]>
  </style>
 </defs>
 <g id="Layer_x0020_1">
  <metadata id="CorelCorpID_0Corel-Layer"/>
  <g id="_2035170412416">
   <g>
    <path class="fil0" d="M492.36 1739.55c-57.33,649.75 238.36,999.22 865.96,999.22 576.3,0 847.83,-322.39 847.83,-893.94l0 -1329.64 -712.06 0 0 1428.9c0,174.46 -72.42,264.72 -181.03,264.72 -187.08,0 -187.08,-243.64 -187.08,-469.26l-633.62 0zm5263.15 941.58c567.87,0 929.48,-179.46 935.35,-652.81 2.72,-221.11 -96.23,-428.59 -335.42,-496.37 138.83,-87.23 262.25,-249.73 256.95,-472.29 -10.94,-459.27 -389.25,-544.47 -878.03,-544.47 -398.93,0 -797.89,0 -1196.86,0 449.27,526.44 474.83,1682.82 -115.22,2165.94l1333.23 0zm-96.58 -1660.58c150.87,0 294.4,12.71 290.47,173.07 -3.41,139.13 -103.56,187.92 -245.2,187.92 -68.19,0 -115.92,0.02 -184.1,0 -12.43,-113.66 -27.73,-224.51 -63.43,-360.99l202.26 0zm-24.12 755.07c226.3,0 391.26,3.11 392.23,201.57 0.74,151.5 -132.79,198.54 -307.75,198.54 -105.42,0 -180.25,0 -285.71,0 36.07,-109.54 76.84,-265.55 85.72,-400.11l115.51 0zm2879.94 905.51l0 -505.4 -977.61 0 0 -1660.54 -712.06 0 0 2165.94 1689.67 0z"/>
    <path class="fil1" d="M4606.26 1343.77c-35.96,-535.22 -408.28,-873.81 -1109.35,-884.43 -739.02,-11.18 -1147.33,436.2 -1147.33,1137.12 0,703.93 396.37,1126.61 1114.15,1147.9 692.93,20.55 1157.33,-405.6 1153.04,-1016.29l-637.6 0c-1.52,207.58 -148.65,460.8 -459.14,465.02 -362,4.92 -513.93,-302.82 -513.93,-606.66 0,-418.15 271.13,-605.86 521.57,-605.86 223.29,0 398.81,137.58 432.31,363.2l646.28 0z"/>
    <path class="fil0" d="M7766.1 278.37c18.46,0 36.47,4.72 54.08,14.22 17.56,9.46 31.29,23.04 41.09,40.65 9.8,17.66 14.73,36.07 14.73,55.17 0,18.96 -4.83,37.22 -14.53,54.68 -9.65,17.51 -23.18,31.09 -40.65,40.74 -17.46,9.7 -35.72,14.53 -54.72,14.53 -19.06,0 -37.31,-4.83 -54.78,-14.53 -17.46,-9.65 -31.04,-23.23 -40.74,-40.74 -9.7,-17.46 -14.58,-35.72 -14.58,-54.68 0,-19.1 4.93,-37.51 14.78,-55.17 9.9,-17.61 23.63,-31.19 41.19,-40.65 17.61,-9.5 35.62,-14.22 54.13,-14.22zm0 18.2c-15.47,0 -30.55,3.98 -45.17,11.89 -14.63,7.91 -26.07,19.26 -34.33,33.98 -8.26,14.73 -12.39,30.05 -12.39,45.97 0,15.87 4.08,31.05 12.19,45.57 8.11,14.53 19.45,25.87 34.03,33.98 14.57,8.11 29.8,12.19 45.67,12.19 15.82,0 31.04,-4.08 45.62,-12.19 14.58,-8.11 25.92,-19.45 33.98,-33.98 8.06,-14.52 12.09,-29.7 12.09,-45.57 0,-15.92 -4.13,-31.24 -12.34,-45.97 -8.21,-14.72 -19.65,-26.07 -34.33,-33.98 -14.67,-7.91 -29.7,-11.89 -45.02,-11.89zm-48.31 152.54l0 -118.21 40.7 0c13.93,0 23.98,1.1 30.2,3.28 6.26,2.19 11.19,5.97 14.92,11.45 3.68,5.42 5.52,11.19 5.52,17.31 0,8.61 -3.08,16.17 -9.3,22.54 -6.17,6.41 -14.38,10 -24.63,10.79 4.18,1.74 7.57,3.83 10.05,6.27 4.78,4.63 10.6,12.44 17.51,23.43l14.43 23.14 -23.18 0 -10.55 -18.61c-8.26,-14.68 -14.97,-23.88 -20.05,-27.56 -3.48,-2.69 -8.55,-4.03 -15.27,-3.98l-11.24 0 0 50.15 -19.11 0zm19.11 -66.57l23.18 0c11.09,0 18.66,-1.64 22.69,-4.92 4.02,-3.29 6.06,-7.67 6.06,-13.04 0,-3.48 -0.99,-6.61 -2.93,-9.35 -1.94,-2.79 -4.63,-4.83 -8.06,-6.17 -3.48,-1.34 -9.85,-2.04 -19.2,-2.04l-21.74 0 0 35.52z"/>
   </g>
   <path class="fil2" d="M485.25 3712.15l0 -565.86 112.23 0 133.83 400.55c12.38,37.28 21.34,65.2 27.01,83.78 6.45,-20.55 16.59,-50.85 30.29,-90.76l136.2 -393.57 100.23 0 0 565.86 -71.91 0 0 -473.4 -165.18 473.4 -67.44 0 -163.34 -482.09 0 482.09 -71.92 0zm3570.31 0l0 -499.48 -186.51 0 0 -66.38 448.11 0 0 66.38 -186.51 0 0 499.48 -75.09 0zm-2933.3 -275.42c0,-93.79 25.29,-167.29 75.74,-220.37 50.45,-53.08 115.52,-79.56 195.34,-79.56 52.29,0 99.32,12.52 141.33,37.41 41.9,24.9 73.91,59.67 95.91,104.32 21.99,44.52 33.06,95.1 33.06,151.61 0,57.3 -11.59,108.67 -34.78,153.85 -23.18,45.31 -55.98,79.56 -98.4,102.74 -42.55,23.31 -88.38,34.9 -137.51,34.9 -53.35,0 -100.9,-12.9 -142.92,-38.59 -41.88,-25.68 -73.76,-60.72 -95.36,-105.24 -21.6,-44.39 -32.41,-91.42 -32.41,-141.07zm77.46 1.31c0,68.1 18.3,121.71 54.92,160.83 36.62,39.12 82.59,58.75 137.91,58.75 56.38,0 102.61,-19.76 139.1,-59.27 36.36,-39.52 54.54,-95.63 54.54,-168.34 0,-45.97 -7.77,-86.14 -23.32,-120.39 -15.54,-34.25 -38.34,-60.86 -68.24,-79.69 -30.03,-18.84 -63.62,-28.32 -100.89,-28.32 -52.95,0 -98.53,18.18 -136.73,54.53 -38.2,36.36 -57.29,96.95 -57.29,181.9zm721.43 274.11l-218.66 -565.86 81.14 0 147 411.22c11.72,32.93 21.73,63.75 29.64,92.6 8.7,-30.95 18.84,-61.78 30.43,-92.6l152.53 -411.22 76.4 0 -220.63 565.86 -77.85 0zm378.57 0l0 -565.86 75.08 0 0 565.86 -75.08 0zm206.14 0l0 -565.86 76.93 0 296.9 444.15 0 -444.15 71.92 0 0 565.86 -76.93 0 -296.9 -444.15 0 444.15 -71.92 0zm836.31 -222.08l0 -66.38 239.46 0 0 209.69c-36.75,29.24 -74.68,51.37 -113.8,66.13 -39.12,14.75 -79.3,22.12 -120.39,22.12 -55.59,0 -106.04,-11.85 -151.49,-35.69 -45.31,-23.71 -79.69,-58.22 -102.74,-103.14 -23.18,-45.05 -34.77,-95.36 -34.77,-150.81 0,-55.06 11.46,-106.43 34.51,-154.25 23.05,-47.68 56.11,-83.11 99.31,-106.16 43.22,-23.18 93.01,-34.78 149.38,-34.78 40.83,0 77.85,6.59 110.91,19.89 33.06,13.31 59.01,31.75 77.71,55.33 18.84,23.7 33.06,54.66 42.81,92.73l-67.57 18.44c-8.56,-28.72 -19.1,-51.37 -31.61,-67.97 -12.65,-16.47 -30.56,-29.64 -54.01,-39.52 -23.31,-9.88 -49.26,-14.88 -77.84,-14.88 -34.12,0 -63.62,5.27 -88.65,15.67 -24.9,10.41 -44.93,24.11 -60.34,41.23 -15.28,16.99 -27.13,35.7 -35.56,55.98 -14.36,35.17 -21.6,73.11 -21.6,114.07 0,50.58 8.69,92.86 25.95,126.98 17.38,33.98 42.67,59.27 75.74,75.73 33.2,16.47 68.37,24.77 105.64,24.77 32.4,0 64.02,-6.32 94.84,-18.84 30.82,-12.64 54.13,-25.95 70.07,-40.3l0 -106.04 -165.96 0zm1055.48 222.08l0 -565.86 75.07 0 0 233.14 292.43 0 0 -233.14 75.08 0 0 565.86 -75.08 0 0 -266.33 -292.43 0 0 266.33 -75.07 0zm569.17 0l0 -565.86 408.6 0 0 66.38 -333.52 0 0 173.87 312.19 0 0 66.39 -312.19 0 0 192.83 346.96 0 0 66.39 -422.04 0zm1253.86 0l217.08 -565.86 82.32 0 230.39 565.86 -85.23 0 -65.46 -171.5 -238.29 0 -61.38 171.5 -79.43 0zm162.81 -232.35l192.83 0 -59.01 -156.88c-17.78,-47.68 -31.21,-87.06 -40.57,-118.15 -7.77,36.88 -18.17,73.1 -31.21,108.93l-62.04 166.1zm511.61 232.35l0 -499.48 -186.51 0 0 -66.38 448.11 0 0 66.38 -186.52 0 0 499.48 -75.08 0zm351.57 0l0 -565.86 75.08 0 0 565.86 -75.08 0zm184 -275.42c0,-93.79 25.3,-167.29 75.75,-220.37 50.45,-53.08 115.52,-79.56 195.34,-79.56 52.29,0 99.32,12.52 141.33,37.41 41.9,24.9 73.91,59.67 95.91,104.32 21.99,44.52 33.06,95.1 33.06,151.61 0,57.3 -11.59,108.67 -34.78,153.85 -23.18,45.31 -55.98,79.56 -98.4,102.74 -42.55,23.31 -88.38,34.9 -137.51,34.9 -53.35,0 -100.9,-12.9 -142.92,-38.59 -41.88,-25.68 -73.76,-60.72 -95.36,-105.24 -21.6,-44.39 -32.42,-91.42 -32.42,-141.07zm77.47 1.31c0,68.1 18.3,121.71 54.92,160.83 36.62,39.12 82.59,58.75 137.91,58.75 56.38,0 102.61,-19.76 139.1,-59.27 36.36,-39.52 54.54,-95.63 54.54,-168.34 0,-45.97 -7.77,-86.14 -23.32,-120.39 -15.55,-34.25 -38.34,-60.86 -68.24,-79.69 -30.03,-18.84 -63.62,-28.32 -100.89,-28.32 -52.95,0 -98.53,18.18 -136.73,54.53 -38.2,36.36 -57.29,96.95 -57.29,181.9zm559.41 274.11l0 -565.86 76.93 0 296.9 444.15 0 -444.15 71.92 0 0 565.86 -76.93 0 -296.9 -444.15 0 444.15 -71.92 0zm-2356.38 0l0 -565.86 76.94 0 296.89 444.15 0 -444.15 71.92 0 0 565.86 -76.93 0 -296.89 -444.15 0 444.15 -71.93 0z"/>
  </g>
 </g>
</svg>
